<?xml version="1.0" encoding="iso-8859-1"?>
<!-- Generator: Adobe Illustrator 19.0.0, SVG Export Plug-In . SVG Version: 6.00 Build 0)  -->
<svg version="1.1" id="Capa_1" xmlns="http://www.w3.org/2000/svg" xmlns:xlink="http://www.w3.org/1999/xlink" x="0px" y="0px"
	 viewBox="0 0 472 472" style="enable-background:new 0 0 472 472;" xml:space="preserve">
<path style="fill:#EA676B;" d="M408,84H224l-80,64v224h328V148L408,84z"/>
<path style="fill:#D1E3EE;" d="M272,372h64v96h-64V372z"/>
<path style="fill:#C4414B;" d="M224,84l-80,64v224l-56,56h160l56-56V148L224,84z"/>
<path style="fill:#1D5C88;" d="M408,184.44V52l48-48h-80v180.44c-15.305,8.837-20.549,28.407-11.713,43.713
	c8.837,15.305,28.407,20.549,43.713,11.713c15.305-8.837,20.549-28.407,11.713-43.713C416.904,191.288,412.865,187.249,408,184.44z"
	/>
<path style="fill:#2BB3CE;" d="M408,52V4h48L408,52z"/>
<path style="fill:#D3B585;" d="M88,180h160v160H88V180z"/>
<path style="fill:#FFD884;" d="M128,140c8.837,0,16,7.163,16,16v104l24-24l24,24l24-24v-79.712
	c-0.004-8.994-7.294-16.284-16.288-16.288H128z"/>
<g>
	<path style="fill:#B4833F;" d="M48,204h16v16H48V204z"/>
	<path style="fill:#B4833F;" d="M48,236h16v16H48V236z"/>
	<path style="fill:#B4833F;" d="M32,220h16v16H32V220z"/>
	<path style="fill:#B4833F;" d="M32,252h16v16H32V252z"/>
	<path style="fill:#B4833F;" d="M64,220h48v16H64V220z"/>
	<path style="fill:#B4833F;" d="M64,252h56v16H64V252z"/>
	<path style="fill:#B4833F;" d="M0,236h16v16H0V236z"/>
	<path style="fill:#B4833F;" d="M8,204h16v16H8V204z"/>
</g>
<g>
</g>
<g>
</g>
<g>
</g>
<g>
</g>
<g>
</g>
<g>
</g>
<g>
</g>
<g>
</g>
<g>
</g>
<g>
</g>
<g>
</g>
<g>
</g>
<g>
</g>
<g>
</g>
<g>
</g>
</svg>
